# 3ds Max Wavefront OBJ Exporter v0.97b - (c)2007 guruware
# File Created: 01.03.2014 22:02:19

#
# object Box
#

v  -0.5000 -0.5000 0.5000
v  -0.5000 -0.5000 -0.5000
v  0.5000 -0.5000 -0.5000
v  0.5000 -0.5000 0.5000
v  -0.5000 0.5000 0.5000
v  0.5000 0.5000 0.5000
v  0.5000 0.5000 -0.5000
v  -0.5000 0.5000 -0.5000
# 8 vertices

vn 0.0000 -1.0000 -0.0000
vn 0.0000 1.0000 -0.0000
vn 0.0000 0.0000 1.0000
vn 1.0000 0.0000 -0.0000
vn 0.0000 0.0000 -1.0000
vn -1.0000 0.0000 -0.0000
# 6 vertex normals

vt 1.0000 0.0000 0.0000
vt 1.0000 1.0000 0.0000
vt 0.0000 1.0000 0.0000
vt 0.0000 0.0000 0.0000
# 4 texture coords

g Box
s 2
f 1/1/1 2/1/1 3/1/1 4/1/1 
s 4
f 5/3/2 6/4/2 7/1/2 8/2/2 
s 8
f 1/1/3 4/1/3 6/1/3 5/1/3 
s 16
f 4/1/4 3/1/4 7/1/4 6/1/4 
s 32
f 3/1/5 2/1/5 8/1/5 7/1/5 
s 64
f 2/1/6 1/1/6 5/1/6 8/1/6 
# 6 polygons

