# Blender v2.90.1 OBJ File: ''
# www.blender.org

v 0.000000 0.191300 -0.461900
v -0.176800 0.191300 -0.426800
v -0.326600 0.191300 -0.326600
v -0.426800 0.191300 -0.176800
v -0.461900 0.191300 0.000000
v -0.426800 0.191300 0.176800
v -0.326600 0.191300 0.326600
v -0.176800 0.191300 0.426800
v 0.000000 0.191300 0.461900
v 0.176800 0.191300 0.426800
v 0.326600 0.191300 0.326600
v 0.426800 0.191300 0.176800
v 0.461900 0.191300 0.000000
v 0.426800 0.191300 -0.176800
v 0.326600 0.191300 -0.326600
v 0.176800 0.191300 -0.426800
v 0.000000 0.000000 -0.500000
v -0.191300 0.000000 -0.461900
v -0.353600 0.000000 -0.353600
v -0.461900 0.000000 -0.191300
v -0.500000 0.000000 0.000000
v -0.461900 -0.000000 0.191300
v -0.353600 -0.000000 0.353600
v -0.191300 -0.000000 0.461900
v 0.000000 -0.000000 0.500000
v 0.191300 -0.000000 0.461900
v 0.353600 -0.000000 0.353600
v 0.461900 -0.000000 0.191300
v 0.500000 0.000000 0.000000
v 0.461900 0.000000 -0.191300
v 0.353600 0.000000 -0.353600
v 0.191300 0.000000 -0.461900
v 0.000000 -0.191300 -0.461900
v -0.176800 -0.191300 -0.426800
v -0.326600 -0.191300 -0.326600
v -0.426800 -0.191300 -0.176800
v -0.461900 -0.191300 -0.000000
v -0.426800 -0.191300 0.176800
v -0.326600 -0.191300 0.326600
v -0.176800 -0.191300 0.426800
v 0.000000 -0.191300 0.461900
v 0.176800 -0.191300 0.426800
v 0.326600 -0.191300 0.326600
v 0.426800 -0.191300 0.176800
v 0.461900 -0.191300 -0.000000
v 0.426800 -0.191300 -0.176800
v 0.326600 -0.191300 -0.326600
v 0.176800 -0.191300 -0.426800
v 0.000000 -0.353600 -0.353600
v -0.135300 -0.353600 -0.326600
v -0.250000 -0.353600 -0.250000
v -0.326600 -0.353600 -0.135300
v -0.353600 -0.353600 -0.000000
v -0.326600 -0.353600 0.135300
v -0.250000 -0.353600 0.250000
v -0.135300 -0.353600 0.326600
v 0.000000 -0.353600 0.353600
v 0.135300 -0.353600 0.326600
v 0.250000 -0.353600 0.250000
v 0.326600 -0.353600 0.135300
v 0.353600 -0.353600 -0.000000
v 0.326600 -0.353600 -0.135300
v 0.250000 -0.353600 -0.250000
v 0.135300 -0.353600 -0.326600
v 0.000000 -0.461900 -0.191300
v -0.073200 -0.461900 -0.176800
v -0.135300 -0.461900 -0.135300
v -0.176800 -0.461900 -0.073200
v -0.191300 -0.461900 -0.000000
v -0.176800 -0.461900 0.073200
v -0.135300 -0.461900 0.135300
v -0.073200 -0.461900 0.176800
v 0.000000 -0.461900 0.191300
v 0.073200 -0.461900 0.176800
v 0.135300 -0.461900 0.135300
v 0.176800 -0.461900 0.073200
v 0.191300 -0.461900 -0.000000
v 0.176800 -0.461900 -0.073200
v 0.135300 -0.461900 -0.135300
v 0.073200 -0.461900 -0.176800
v 0.000000 -0.500000 -0.000000
v 0.000000 0.500000 0.000000
v 0.000000 0.461900 -0.191300
v -0.073200 0.461900 -0.176800
v -0.135300 0.461900 -0.135300
v -0.176800 0.461900 -0.073200
v -0.191300 0.461900 0.000000
v -0.176800 0.461900 0.073200
v -0.135300 0.461900 0.135300
v -0.073200 0.461900 0.176800
v 0.000000 0.461900 0.191300
v 0.073200 0.461900 0.176800
v 0.135300 0.461900 0.135300
v 0.176800 0.461900 0.073200
v 0.191300 0.461900 0.000000
v 0.176800 0.461900 -0.073200
v 0.135300 0.461900 -0.135300
v 0.073200 0.461900 -0.176800
v 0.000000 0.353600 -0.353600
v -0.135300 0.353600 -0.326600
v -0.250000 0.353600 -0.250000
v -0.326600 0.353600 -0.135300
v -0.353600 0.353600 0.000000
v -0.326600 0.353600 0.135300
v -0.250000 0.353600 0.250000
v -0.135300 0.353600 0.326600
v 0.000000 0.353600 0.353600
v 0.135300 0.353600 0.326600
v 0.250000 0.353600 0.250000
v 0.326600 0.353600 0.135300
v 0.353600 0.353600 0.000000
v 0.326600 0.353600 -0.135300
v 0.250000 0.353600 -0.250000
v 0.135300 0.353600 -0.326600
v 0.000000 0.191300 -0.461900
v -0.176800 0.191300 -0.426800
v -0.326600 0.191300 -0.326600
v -0.426800 0.191300 -0.176800
v -0.461900 0.191300 0.000000
v -0.426800 0.191300 0.176800
v -0.326600 0.191300 0.326600
v -0.176800 0.191300 0.426800
v 0.000000 0.191300 0.461900
v 0.176800 0.191300 0.426800
v 0.326600 0.191300 0.326600
v 0.426800 0.191300 0.176800
v 0.461900 0.191300 0.000000
v 0.426800 0.191300 -0.176800
v 0.326600 0.191300 -0.326600
v 0.176800 0.191300 -0.426800

vn -0.0002 0.1952 -0.9808
vn -0.0000 0.0000 -1.0000
vn -0.3825 -0.0001 -0.9239
vn -0.3752 0.1950 -0.9062
vn -0.7071 0.0000 -0.7071
vn -0.6937 0.1955 -0.6933
vn -0.9239 0.0001 -0.3825
vn -0.9061 0.1949 -0.3756
vn -1.0000 0.0000 0.0000
vn -0.9808 0.1952 0.0002
vn -0.9239 -0.0001 0.3825
vn -0.9062 0.1950 0.3752
vn -0.7071 -0.0000 0.7071
vn -0.6933 0.1955 0.6937
vn -0.3825 0.0001 0.9239
vn -0.3756 0.1949 0.9061
vn -0.0000 -0.0000 1.0000
vn 0.0002 0.1952 0.9808
vn 0.3825 -0.0001 0.9239
vn 0.3752 0.1950 0.9062
vn 0.7071 -0.0000 0.7071
vn 0.6937 0.1955 0.6933
vn 0.9239 0.0001 0.3825
vn 0.9061 0.1949 0.3756
vn 1.0000 -0.0000 0.0000
vn 0.9808 0.1952 -0.0002
vn 0.9239 -0.0001 -0.3825
vn 0.9062 0.1950 -0.3752
vn 0.7071 0.0000 -0.7071
vn 0.6933 0.1955 -0.6937
vn 0.3825 0.0001 -0.9239
vn 0.3756 0.1949 -0.9061
vn 0.0000 -0.3742 -0.9273
vn -0.3550 -0.3742 -0.8567
vn -0.6556 -0.3744 -0.6557
vn -0.8567 -0.3742 -0.3549
vn -0.9273 -0.3742 -0.0000
vn -0.8567 -0.3742 0.3550
vn -0.6557 -0.3744 0.6556
vn -0.3549 -0.3742 0.8567
vn -0.0000 -0.3742 0.9273
vn 0.3550 -0.3742 0.8567
vn 0.6556 -0.3744 0.6557
vn 0.8567 -0.3742 0.3549
vn 0.9273 -0.3742 0.0000
vn 0.8567 -0.3742 -0.3550
vn 0.6557 -0.3744 -0.6556
vn 0.3549 -0.3742 -0.8567
vn -0.0001 -0.6951 -0.7189
vn -0.2751 -0.6952 -0.6641
vn -0.5084 -0.6951 -0.5083
vn -0.6640 -0.6952 -0.2752
vn -0.7189 -0.6951 0.0001
vn -0.6641 -0.6952 0.2751
vn -0.5083 -0.6951 0.5084
vn -0.2752 -0.6953 0.6640
vn 0.0001 -0.6951 0.7189
vn 0.2751 -0.6952 0.6641
vn 0.5084 -0.6951 0.5083
vn 0.6640 -0.6952 0.2752
vn 0.7189 -0.6951 -0.0001
vn 0.6641 -0.6952 -0.2751
vn 0.5083 -0.6951 -0.5084
vn 0.2752 -0.6952 -0.6640
vn 0.0001 -0.9153 -0.4029
vn -0.1542 -0.9152 -0.3724
vn -0.2849 -0.9152 -0.2850
vn -0.3725 -0.9152 -0.1541
vn -0.4029 -0.9153 -0.0001
vn -0.3724 -0.9152 0.1542
vn -0.2850 -0.9152 0.2849
vn -0.1541 -0.9152 0.3725
vn -0.0001 -0.9153 0.4029
vn 0.1542 -0.9152 0.3724
vn 0.2849 -0.9152 0.2850
vn 0.3725 -0.9152 0.1541
vn 0.4029 -0.9153 0.0001
vn 0.3724 -0.9152 -0.1542
vn 0.2850 -0.9152 -0.2849
vn 0.1541 -0.9152 -0.3725
vn 0.0000 -1.0000 -0.0000
vn 0.0000 1.0000 0.0000
vn -0.0001 0.9153 -0.4029
vn -0.1541 0.9152 -0.3725
vn -0.2850 0.9152 -0.2849
vn -0.3724 0.9152 -0.1542
vn -0.4029 0.9153 0.0001
vn -0.3725 0.9152 0.1541
vn -0.2849 0.9152 0.2850
vn -0.1542 0.9152 0.3724
vn 0.0001 0.9153 0.4029
vn 0.1541 0.9152 0.3725
vn 0.2850 0.9152 0.2849
vn 0.3724 0.9152 0.1542
vn 0.4029 0.9153 -0.0001
vn 0.3725 0.9152 -0.1541
vn 0.2849 0.9152 -0.2850
vn 0.1542 0.9152 -0.3724
vn 0.0001 0.6951 -0.7189
vn -0.2752 0.6953 -0.6640
vn -0.5083 0.6951 -0.5084
vn -0.6641 0.6952 -0.2751
vn -0.7189 0.6951 -0.0001
vn -0.6640 0.6952 0.2752
vn -0.5084 0.6951 0.5083
vn -0.2751 0.6952 0.6641
vn -0.0001 0.6951 0.7189
vn 0.2752 0.6952 0.6640
vn 0.5083 0.6951 0.5084
vn 0.6641 0.6952 0.2751
vn 0.7189 0.6951 0.0001
vn 0.6640 0.6952 -0.2752
vn 0.5084 0.6951 -0.5083
vn 0.2751 0.6952 -0.6641
vn 0.0001 0.5552 -0.8317
vn -0.3184 0.5555 -0.7682
vn -0.5880 0.5553 -0.5882
vn -0.7683 0.5555 -0.3182
vn -0.8317 0.5552 -0.0001
vn -0.7682 0.5555 0.3184
vn -0.5882 0.5553 0.5880
vn -0.3182 0.5555 0.7683
vn -0.0001 0.5552 0.8317
vn 0.3184 0.5555 0.7682
vn 0.5880 0.5553 0.5882
vn 0.7683 0.5555 0.3182
vn 0.8317 0.5552 0.0001
vn 0.7682 0.5555 -0.3184
vn 0.5882 0.5553 -0.5880
vn 0.3182 0.5555 -0.7683

vt 0.000000 0.625000
vt 0.000000 0.500000
vt 0.062500 0.500000
vt 0.062500 0.625000
vt 0.125000 0.500000
vt 0.125000 0.625000
vt 0.187500 0.500000
vt 0.187500 0.625000
vt 0.250000 0.500000
vt 0.250000 0.625000
vt 0.312500 0.500000
vt 0.312500 0.625000
vt 0.375000 0.500000
vt 0.375000 0.625000
vt 0.437500 0.500000
vt 0.437500 0.625000
vt 0.500000 0.500000
vt 0.500000 0.625000
vt 0.562500 0.500000
vt 0.562500 0.625000
vt 0.625000 0.500000
vt 0.625000 0.625000
vt 0.687500 0.500000
vt 0.687500 0.625000
vt 0.750000 0.500000
vt 0.750000 0.625000
vt 0.812500 0.500000
vt 0.812500 0.625000
vt 0.875000 0.500000
vt 0.875000 0.625000
vt 0.937500 0.500000
vt 0.937500 0.625000
vt 1.000000 0.500000
vt 1.000000 0.625000
vt 0.000000 0.375000
vt 0.062500 0.375000
vt 0.125000 0.375000
vt 0.187500 0.375000
vt 0.250000 0.375000
vt 0.312500 0.375000
vt 0.375000 0.375000
vt 0.437500 0.375000
vt 0.500000 0.375000
vt 0.562500 0.375000
vt 0.625000 0.375000
vt 0.687500 0.375000
vt 0.750000 0.375000
vt 0.812500 0.375000
vt 0.875000 0.375000
vt 0.937500 0.375000
vt 1.000000 0.375000
vt 0.000000 0.250000
vt 0.062500 0.250000
vt 0.125000 0.250000
vt 0.187500 0.250000
vt 0.250000 0.250000
vt 0.312500 0.250000
vt 0.375000 0.250000
vt 0.437500 0.250000
vt 0.500000 0.250000
vt 0.562500 0.250000
vt 0.625000 0.250000
vt 0.687500 0.250000
vt 0.750000 0.250000
vt 0.812500 0.250000
vt 0.875000 0.250000
vt 0.937500 0.250000
vt 1.000000 0.250000
vt 0.000000 0.125000
vt 0.062500 0.125000
vt 0.125000 0.125000
vt 0.187500 0.125000
vt 0.250000 0.125000
vt 0.312500 0.125000
vt 0.375000 0.125000
vt 0.437500 0.125000
vt 0.500000 0.125000
vt 0.562500 0.125000
vt 0.625000 0.125000
vt 0.687500 0.125000
vt 0.750000 0.125000
vt 0.812500 0.125000
vt 0.875000 0.125000
vt 0.937500 0.125000
vt 1.000000 0.125000
vt 0.000000 0.000000
vt 0.062500 0.000000
vt 0.125000 0.000000
vt 0.187500 0.000000
vt 0.250000 0.000000
vt 0.312500 0.000000
vt 0.375000 0.000000
vt 0.437500 0.000000
vt 0.500000 0.000000
vt 0.562500 0.000000
vt 0.625000 0.000000
vt 0.687500 0.000000
vt 0.750000 0.000000
vt 0.812500 0.000000
vt 0.875000 0.000000
vt 0.937500 0.000000
vt 0.000000 1.000000
vt 0.000000 0.875000
vt 0.062500 0.875000
vt 0.062500 1.000000
vt 0.125000 0.875000
vt 0.125000 1.000000
vt 0.187500 0.875000
vt 0.187500 1.000000
vt 0.250000 0.875000
vt 0.250000 1.000000
vt 0.312500 0.875000
vt 0.312500 1.000000
vt 0.375000 0.875000
vt 0.375000 1.000000
vt 0.437500 0.875000
vt 0.437500 1.000000
vt 0.500000 0.875000
vt 0.500000 1.000000
vt 0.562500 0.875000
vt 0.562500 1.000000
vt 0.625000 0.875000
vt 0.625000 1.000000
vt 0.687500 0.875000
vt 0.687500 1.000000
vt 0.750000 0.875000
vt 0.750000 1.000000
vt 0.812500 0.875000
vt 0.812500 1.000000
vt 0.875000 0.875000
vt 0.875000 1.000000
vt 0.937500 0.875000
vt 0.937500 1.000000
vt 1.000000 0.875000
vt 0.000000 0.750000
vt 0.062500 0.750000
vt 0.125000 0.750000
vt 0.187500 0.750000
vt 0.250000 0.750000
vt 0.312500 0.750000
vt 0.375000 0.750000
vt 0.437500 0.750000
vt 0.500000 0.750000
vt 0.562500 0.750000
vt 0.625000 0.750000
vt 0.687500 0.750000
vt 0.750000 0.750000
vt 0.812500 0.750000
vt 0.875000 0.750000
vt 0.937500 0.750000
vt 1.000000 0.750000
vt 0.000000 0.625000
vt 0.062500 0.625000
vt 0.125000 0.625000
vt 0.187500 0.625000
vt 0.250000 0.625000
vt 0.312500 0.625000
vt 0.375000 0.625000
vt 0.437500 0.625000
vt 0.500000 0.625000
vt 0.562500 0.625000
vt 0.625000 0.625000
vt 0.687500 0.625000
vt 0.750000 0.625000
vt 0.812500 0.625000
vt 0.875000 0.625000
vt 0.937500 0.625000
vt 1.000000 0.625000

g Body
f 1/1/1 17/2/2 18/3/3
f 1/1/1 18/3/3 2/4/4
f 2/4/4 18/3/3 19/5/5
f 2/4/4 19/5/5 3/6/6
f 3/6/6 19/5/5 20/7/7
f 3/6/6 20/7/7 4/8/8
f 4/8/8 20/7/7 21/9/9
f 4/8/8 21/9/9 5/10/10
f 5/10/10 21/9/9 22/11/11
f 5/10/10 22/11/11 6/12/12
f 6/12/12 22/11/11 23/13/13
f 6/12/12 23/13/13 7/14/14
f 7/14/14 23/13/13 24/15/15
f 7/14/14 24/15/15 8/16/16
f 8/16/16 24/15/15 25/17/17
f 8/16/16 25/17/17 9/18/18
f 9/18/18 25/17/17 26/19/19
f 9/18/18 26/19/19 10/20/20
f 10/20/20 26/19/19 27/21/21
f 10/20/20 27/21/21 11/22/22
f 11/22/22 27/21/21 28/23/23
f 11/22/22 28/23/23 12/24/24
f 12/24/24 28/23/23 29/25/25
f 12/24/24 29/25/25 13/26/26
f 13/26/26 29/25/25 30/27/27
f 13/26/26 30/27/27 14/28/28
f 14/28/28 30/27/27 31/29/29
f 14/28/28 31/29/29 15/30/30
f 15/30/30 31/29/29 32/31/31
f 15/30/30 32/31/31 16/32/32
f 16/32/32 32/31/31 17/33/2
f 16/32/32 17/33/2 1/34/1
f 17/2/2 33/35/33 34/36/34
f 17/2/2 34/36/34 18/3/3
f 18/3/3 34/36/34 35/37/35
f 18/3/3 35/37/35 19/5/5
f 19/5/5 35/37/35 36/38/36
f 19/5/5 36/38/36 20/7/7
f 20/7/7 36/38/36 37/39/37
f 20/7/7 37/39/37 21/9/9
f 21/9/9 37/39/37 38/40/38
f 21/9/9 38/40/38 22/11/11
f 22/11/11 38/40/38 39/41/39
f 22/11/11 39/41/39 23/13/13
f 23/13/13 39/41/39 40/42/40
f 23/13/13 40/42/40 24/15/15
f 24/15/15 40/42/40 41/43/41
f 24/15/15 41/43/41 25/17/17
f 25/17/17 41/43/41 42/44/42
f 25/17/17 42/44/42 26/19/19
f 26/19/19 42/44/42 43/45/43
f 26/19/19 43/45/43 27/21/21
f 27/21/21 43/45/43 44/46/44
f 27/21/21 44/46/44 28/23/23
f 28/23/23 44/46/44 45/47/45
f 28/23/23 45/47/45 29/25/25
f 29/25/25 45/47/45 46/48/46
f 29/25/25 46/48/46 30/27/27
f 30/27/27 46/48/46 47/49/47
f 30/27/27 47/49/47 31/29/29
f 31/29/29 47/49/47 48/50/48
f 31/29/29 48/50/48 32/31/31
f 32/31/31 48/50/48 33/51/33
f 32/31/31 33/51/33 17/33/2
f 33/35/33 49/52/49 50/53/50
f 33/35/33 50/53/50 34/36/34
f 34/36/34 50/53/50 51/54/51
f 34/36/34 51/54/51 35/37/35
f 35/37/35 51/54/51 52/55/52
f 35/37/35 52/55/52 36/38/36
f 36/38/36 52/55/52 53/56/53
f 36/38/36 53/56/53 37/39/37
f 37/39/37 53/56/53 54/57/54
f 37/39/37 54/57/54 38/40/38
f 38/40/38 54/57/54 55/58/55
f 38/40/38 55/58/55 39/41/39
f 39/41/39 55/58/55 56/59/56
f 39/41/39 56/59/56 40/42/40
f 40/42/40 56/59/56 57/60/57
f 40/42/40 57/60/57 41/43/41
f 41/43/41 57/60/57 58/61/58
f 41/43/41 58/61/58 42/44/42
f 42/44/42 58/61/58 59/62/59
f 42/44/42 59/62/59 43/45/43
f 43/45/43 59/62/59 60/63/60
f 43/45/43 60/63/60 44/46/44
f 44/46/44 60/63/60 61/64/61
f 44/46/44 61/64/61 45/47/45
f 45/47/45 61/64/61 62/65/62
f 45/47/45 62/65/62 46/48/46
f 46/48/46 62/65/62 63/66/63
f 46/48/46 63/66/63 47/49/47
f 47/49/47 63/66/63 64/67/64
f 47/49/47 64/67/64 48/50/48
f 48/50/48 64/67/64 49/68/49
f 48/50/48 49/68/49 33/51/33
f 49/52/49 65/69/65 66/70/66
f 49/52/49 66/70/66 50/53/50
f 50/53/50 66/70/66 67/71/67
f 50/53/50 67/71/67 51/54/51
f 51/54/51 67/71/67 68/72/68
f 51/54/51 68/72/68 52/55/52
f 52/55/52 68/72/68 69/73/69
f 52/55/52 69/73/69 53/56/53
f 53/56/53 69/73/69 70/74/70
f 53/56/53 70/74/70 54/57/54
f 54/57/54 70/74/70 71/75/71
f 54/57/54 71/75/71 55/58/55
f 55/58/55 71/75/71 72/76/72
f 55/58/55 72/76/72 56/59/56
f 56/59/56 72/76/72 73/77/73
f 56/59/56 73/77/73 57/60/57
f 57/60/57 73/77/73 74/78/74
f 57/60/57 74/78/74 58/61/58
f 58/61/58 74/78/74 75/79/75
f 58/61/58 75/79/75 59/62/59
f 59/62/59 75/79/75 76/80/76
f 59/62/59 76/80/76 60/63/60
f 60/63/60 76/80/76 77/81/77
f 60/63/60 77/81/77 61/64/61
f 61/64/61 77/81/77 78/82/78
f 61/64/61 78/82/78 62/65/62
f 62/65/62 78/82/78 79/83/79
f 62/65/62 79/83/79 63/66/63
f 63/66/63 79/83/79 80/84/80
f 63/66/63 80/84/80 64/67/64
f 64/67/64 80/84/80 65/85/65
f 64/67/64 65/85/65 49/68/49
f 81/86/81 66/70/66 65/69/65
f 81/87/81 67/71/67 66/70/66
f 81/88/81 68/72/68 67/71/67
f 81/89/81 69/73/69 68/72/68
f 81/90/81 70/74/70 69/73/69
f 81/91/81 71/75/71 70/74/70
f 81/92/81 72/76/72 71/75/71
f 81/93/81 73/77/73 72/76/72
f 81/94/81 74/78/74 73/77/73
f 81/95/81 75/79/75 74/78/74
f 81/96/81 76/80/76 75/79/75
f 81/97/81 77/81/77 76/80/76
f 81/98/81 78/82/78 77/81/77
f 81/99/81 79/83/79 78/82/78
f 81/100/81 80/84/80 79/83/79
f 81/101/81 65/85/65 80/84/80
f 82/102/82 83/103/83 84/104/84
f 82/105/82 84/104/84 85/106/85
f 82/107/82 85/106/85 86/108/86
f 82/109/82 86/108/86 87/110/87
f 82/111/82 87/110/87 88/112/88
f 82/113/82 88/112/88 89/114/89
f 82/115/82 89/114/89 90/116/90
f 82/117/82 90/116/90 91/118/91
f 82/119/82 91/118/91 92/120/92
f 82/121/82 92/120/92 93/122/93
f 82/123/82 93/122/93 94/124/94
f 82/125/82 94/124/94 95/126/95
f 82/127/82 95/126/95 96/128/96
f 82/129/82 96/128/96 97/130/97
f 82/131/82 97/130/97 98/132/98
f 82/133/82 98/132/98 83/134/83
f 83/103/83 99/135/99 100/136/100
f 83/103/83 100/136/100 84/104/84
f 84/104/84 100/136/100 101/137/101
f 84/104/84 101/137/101 85/106/85
f 85/106/85 101/137/101 102/138/102
f 85/106/85 102/138/102 86/108/86
f 86/108/86 102/138/102 103/139/103
f 86/108/86 103/139/103 87/110/87
f 87/110/87 103/139/103 104/140/104
f 87/110/87 104/140/104 88/112/88
f 88/112/88 104/140/104 105/141/105
f 88/112/88 105/141/105 89/114/89
f 89/114/89 105/141/105 106/142/106
f 89/114/89 106/142/106 90/116/90
f 90/116/90 106/142/106 107/143/107
f 90/116/90 107/143/107 91/118/91
f 91/118/91 107/143/107 108/144/108
f 91/118/91 108/144/108 92/120/92
f 92/120/92 108/144/108 109/145/109
f 92/120/92 109/145/109 93/122/93
f 93/122/93 109/145/109 110/146/110
f 93/122/93 110/146/110 94/124/94
f 94/124/94 110/146/110 111/147/111
f 94/124/94 111/147/111 95/126/95
f 95/126/95 111/147/111 112/148/112
f 95/126/95 112/148/112 96/128/96
f 96/128/96 112/148/112 113/149/113
f 96/128/96 113/149/113 97/130/97
f 97/130/97 113/149/113 114/150/114
f 97/130/97 114/150/114 98/132/98
f 98/132/98 114/150/114 99/151/99
f 98/132/98 99/151/99 83/134/83
f 99/135/99 115/152/115 116/153/116
f 99/135/99 116/153/116 100/136/100
f 100/136/100 116/153/116 117/154/117
f 100/136/100 117/154/117 101/137/101
f 101/137/101 117/154/117 118/155/118
f 101/137/101 118/155/118 102/138/102
f 102/138/102 118/155/118 119/156/119
f 102/138/102 119/156/119 103/139/103
f 103/139/103 119/156/119 120/157/120
f 103/139/103 120/157/120 104/140/104
f 104/140/104 120/157/120 121/158/121
f 104/140/104 121/158/121 105/141/105
f 105/141/105 121/158/121 122/159/122
f 105/141/105 122/159/122 106/142/106
f 106/142/106 122/159/122 123/160/123
f 106/142/106 123/160/123 107/143/107
f 107/143/107 123/160/123 124/161/124
f 107/143/107 124/161/124 108/144/108
f 108/144/108 124/161/124 125/162/125
f 108/144/108 125/162/125 109/145/109
f 109/145/109 125/162/125 126/163/126
f 109/145/109 126/163/126 110/146/110
f 110/146/110 126/163/126 127/164/127
f 110/146/110 127/164/127 111/147/111
f 111/147/111 127/164/127 128/165/128
f 111/147/111 128/165/128 112/148/112
f 112/148/112 128/165/128 129/166/129
f 112/148/112 129/166/129 113/149/113
f 113/149/113 129/166/129 130/167/130
f 113/149/113 130/167/130 114/150/114
f 114/150/114 130/167/130 115/168/115
f 114/150/114 115/168/115 99/151/99
